<svg width="198" height="161" viewBox="0 0 198 161" fill="none" xmlns="http://www.w3.org/2000/svg">
<ellipse opacity="0.3" cx="99" cy="152.5" rx="99" ry="8.5" fill="#C4C4C4"/>
<path d="M110 47C110.203 47.6812 108.608 48.7585 106.437 49.4062C104.266 50.054 101.625 49.6812 101.422 49C101.219 48.3188 102.814 47.2415 104.985 46.5938C107.155 45.9461 109.797 46.3188 110 47Z" fill="white"/>
<path d="M93.5 58.5L97.4812 62.422C94.659 65.6812 92.9333 67.3827 89.6049 70.191L87 67.5C89 65 91.5 62 93.5 58.5Z" fill="#FFE0AB"/>
<path d="M96.5478 61.4758L97.539 62.4807C94.6563 65.6341 92.9249 67.3324 89.6627 70.2498L88.6715 69.2448C91.9382 66.4274 93.6546 64.7183 96.5478 61.4758Z" fill="#FFD182"/>
<path d="M99.4642 125.997C97.7298 121.196 101.271 100.326 103.258 90.4902C110.666 87.6563 129.282 81.3092 128 89C126.5 98 121.145 114.995 123.313 124.997C125.047 132.999 124.939 136.833 126.565 137.499L123.313 140C109.763 128.498 113.921 99.8234 110.305 102.493C107.594 104.493 105.968 121.996 105.968 127.498C105.968 131.898 107.775 136.333 108.678 138L104.884 138.5C100.006 129.498 101.632 131.998 99.4642 125.997Z" fill="#6A89CC"/>
<path d="M104 124.5C104 131.7 107 136.5 108.5 138L106.5 124.5C106.5 121.5 107 119.5 108.5 110C109.968 100.7 111.333 102.167 112 104L109.5 96C109.333 96.3333 108.7 97.8 107.5 101C106 105 104 115.5 104 124.5Z" fill="#4D6BAC"/>
<path d="M103 92.5L127.5 91.5V92.5L102.665 94L103 92.5Z" fill="#5B75AE"/>
<path d="M122.168 91C121.763 95.5694 120.792 105.394 120.144 108.135C119.335 111.563 118.526 118.417 119.335 121.844C120.144 125.271 122.168 135.552 123.381 136.531M123.381 136.531C124.353 137.315 125.365 138.337 125.5 138.5L123.381 136.531Z" stroke="#425C94" stroke-width="0.3"/>
<path d="M100.851 72.3977C100.851 74.5477 101.951 87.0445 100.851 92.7778L128.5 91.2997C129 87.3581 127.32 75.9273 126 70.3373C124.68 64.7474 121.755 50.45 119.555 47.7625L112.403 44L102.501 46.6875C102.501 46.6875 98.6504 47.7625 98.1003 48.3C97.5502 48.8375 97 50.4052 97 50.4052V54.7499C98.2837 59.0499 100.851 70.2478 100.851 72.3977Z" fill="#93CEF4"/>
<path d="M116.306 52.3246C113.459 55.9769 103.94 61.9093 99 62C99.3884 64.2527 99.5 64.5 100 67.5C100.5 70.5 100.79 74.454 101 76C101.142 77.0442 101 89.5 101 92.5C101 92.5 108.889 93.8303 117.789 85.3481C126.69 76.8658 119.153 48.6724 116.306 52.3246Z" fill="#5BBAF9"/>
<path d="M98 49.5L103.187 55.851L96.5 63.5L91.5 59L98 49.5Z" fill="#93CEF4"/>
<path d="M98.4285 58L95.0527 61.9497C95.0527 61.9497 96.0675 63.3261 96.7669 63.9497L98.9999 61.8182L98.4285 58Z" fill="#5BBAF9"/>
<path d="M96.8721 63.1661L92.1684 58.9297L92.5361 58.3631C93.7408 59.884 94.8802 61.0146 97.1439 62.8991L96.8721 63.1661Z" fill="white" stroke="#EEEEEE"/>
<path d="M96.7529 64.1378L97.8749 62.8685L95.5732 60.9067L95 62L96.7529 64.1378Z" fill="#DADADA"/>
<path d="M94.8777 78C106.46 72.5136 111.378 61 111.878 60C113.711 60.5 117.4 62.3 117 63.5C116.5 65 108.576 73.7961 104 76.5C93 83 91.3777 81 93.8777 83L88.3777 84.5L86.8777 83C85.0443 83.6667 85.3777 82.5 94.8777 78Z" fill="#FFE0AB"/>
<path d="M99 78C98 78.5 94 80.5 93.5 80.5L94 81H95L100.5 78.5L103 77L104.5 76L106 75L110 72L113 69L115 67L117 64.5L115 64L113 67L110 70L106.5 73C104.333 74.5 99.8 77.6 99 78Z" fill="#FFD182"/>
<path d="M113.731 49.341L120.957 52.4693C120.132 57.0475 119.225 59.6657 116.915 64.5519L108.742 61.7714C111.108 56.9602 112.984 53.9621 113.731 49.341Z" fill="#93CEF4"/>
<path d="M110 59.5L118 62.5L116.993 64.6281L108.688 61.9066L110 59.5Z" fill="#EEEEEE"/>
<path d="M100.535 41.9927L106.819 40.3631L108.636 47.3704C106.591 48.8057 105.244 49.2346 102.352 49L100.535 41.9927Z" fill="#FFE0AB"/>
<path d="M100.535 41.9927L106.819 40.3631L107.911 44.5743C105.708 45.6581 104.327 46.0057 101.627 46.2039L100.535 41.9927Z" fill="#FFD182"/>
<path d="M95 40.3535V28.9161C95 23.9122 96.5697 24.2186 98.2419 23.5548C100.043 22.84 101.844 22.9016 103.285 23.2591C104.726 23.6165 105.446 22.9016 106.527 25.4036C107.607 27.9055 112.65 28.5587 111.93 33.2051C111.209 37.8516 104.365 45 101.844 45C99.3225 45 95 43.5703 95 40.3535Z" fill="#FFE0AB"/>
<path d="M95 28.1408L95 35.5C88.8364 33.7615 90.2662 20.6901 91 19C93 15.5 93.6079 17.5 103 17.5C114.74 17.5 118.058 27.8785 116.008 31.7418C112.332 38.6704 109.028 38.5981 112.577 37.4198C113.121 37.163 113.616 37 114 37C113.437 37.1481 112.966 37.2906 112.577 37.4198C109.997 38.6365 106.311 41.9591 108.13 40.0352C113.266 34.6026 112.272 29.4235 108.437 33.5734C108.19 33.841 108.07 33.5734 108.07 33.5734C108.07 33.5734 107.754 33.2113 107.336 27.7787C105.869 28.9376 97.2013 28.6237 95 28.1408Z" fill="black"/>
<path d="M108.559 138.051C108.624 138.6 107.365 139.922 106.394 140.038C104 140.218 104.5 139.718 105 139.218C105.251 138.051 105.714 137.383 106.684 137.268C107.654 137.152 108.494 137.503 108.559 138.051Z" fill="#FFE0AB"/>
<path d="M101.813 141.373L105 139C104.71 140.243 105.473 139.93 105.473 139.93C106.293 139.635 107.573 139.176 108.053 138.615L108.534 138.054L109.85 139.912L109.429 140.969L108.948 141.53L108.468 142.09L102.649 143.791C102.649 143.791 100.549 144.545 99.9501 144.113C99.3511 143.681 99.8317 143.12 99.8317 143.12L101.813 141.373Z" fill="black" stroke="black" stroke-width="0.1"/>
<path d="M126.694 137.576C127.01 138.105 126.526 139.626 125.8 140.06C124.333 141.586 124.229 140.417 123.913 139.887C123.597 139.358 124.081 137.837 124.807 137.403C125.533 136.969 126.378 137.047 126.694 137.576Z" fill="#FFE0AB"/>
<path d="M122.428 143.374L123.913 139.887C124.249 141.247 124.923 140.584 124.923 140.584C125.496 139.988 126.39 139.058 126.542 138.317L126.694 137.576L128.715 138.969L128.849 140.189L128.697 140.929L128.545 141.67L124.297 145.508C124.297 145.508 122.571 147.354 122.106 146.817C121.642 146.28 121.534 145.859 121.534 145.859L122.428 143.374Z" fill="black" stroke="black" stroke-width="0.1"/>
<path d="M56.6874 85.3236L47.4527 58.3236C47.2308 57.6747 47.7131 57 48.3989 57H83.6152C84.0251 57 84.3935 57.2502 84.5447 57.6312L95.2569 84.6312C95.5173 85.2877 95.0336 86 94.3274 86H57.6335C57.206 86 56.8257 85.7282 56.6874 85.3236Z" fill="#D9D5D5" stroke="#BEBBBB" stroke-width="0.1"/>
<path d="M95.5192 85.1714L94.2 81.8571H110.492C111.158 83.0309 111.18 83.7529 110.492 85.1714H95.5192Z" fill="#D9D5D5"/>
<path d="M73.4 71C73.4 72.6569 71.9673 74 70.2 74C68.4327 74 67 72.6569 67 71C67 69.3431 68.4327 68 70.2 68C71.9673 68 73.4 69.3431 73.4 71Z" fill="white"/>
<path d="M75 71C75 71.8284 74.2837 72.5 73.4 72.5C72.5163 72.5 71.8 71.8284 71.8 71C71.8 70.1716 72.5163 69.5 73.4 69.5C74.2837 69.5 75 70.1716 75 71Z" fill="#D9D5D5"/>
<path d="M166.339 85H25V90.7632H166.339V85Z" fill="#2980B9"/>
<path d="M34.8529 152.059L54.7658 90.6405L39.7313 90.6174L31.1585 152.054L34.8529 152.059Z" fill="#2980B9"/>
<path d="M154.64 150.378L134.954 90.6946L149.982 90.6203L158.333 150.36L154.64 150.378Z" fill="#2980B9"/>
<path d="M38.9724 95.9198L39.7104 90.7632H54.7168L53.0214 95.9198H38.9724Z" fill="#1F638F"/>
<path d="M150.634 95.3131L150.019 90.7632H134.93L136.47 95.3131H150.634Z" fill="#1F638F"/>
<circle cx="126" cy="4" r="4" fill="#F6B93B"/>
<path d="M127.818 10.6957C126.372 11.0961 125.575 11.1067 124.182 10.6957L123.818 8.68701C122.692 6.49315 122.019 5.22872 122 4H130C129.985 5.33418 129.388 6.50258 128.182 8.68701L127.818 10.6957Z" fill="#F6B93B"/>
<path d="M128 9H124L124.333 10.7143C124.897 10.8988 125.277 10.9489 126 11C126.676 10.9596 127.043 10.9039 127.667 10.7143L128 9Z" fill="black"/>
<line x1="124" y1="8.95" x2="128" y2="8.95" stroke="white" stroke-width="0.1"/>
<line x1="124" y1="8.95" x2="128" y2="8.95" stroke="white" stroke-width="0.1"/>
</svg>
