<svg width="18" height="17" viewBox="0 0 18 17" fill="none" xmlns="http://www.w3.org/2000/svg">
<path d="M9 0C4.0274 0 0 3.8615 0 8.62926C0 12.6846 2.90221 16.0504 6.81779 16.9993C6.7726 16.8913 6.75038 16.74 6.75038 16.5895V15.1221H5.62519C5.01779 15.1221 4.45481 14.8636 4.2074 14.3885C3.91481 13.8707 3.86962 13.0724 3.1274 12.5759C2.90221 12.4034 3.08221 12.2308 3.32962 12.2521C3.80221 12.3813 4.18443 12.6839 4.54443 13.1363C4.90443 13.5894 5.06221 13.6974 5.73702 13.6974C6.05183 13.6974 6.54664 13.6761 6.99702 13.6107C7.24443 13.0063 7.67183 12.4673 8.18962 12.2087C5.17481 11.8636 3.73481 10.4396 3.73481 8.4978C3.73481 7.65617 4.11702 6.85787 4.7474 6.16753C4.54519 5.49849 4.27481 4.11781 4.83779 3.57875C6.18817 3.57875 6.99779 4.42038 7.2 4.63556C7.87481 4.41965 8.61779 4.29039 9.38221 4.29039C10.1696 4.29039 10.8896 4.41965 11.5644 4.63556C11.7666 4.41965 12.577 3.57875 13.9266 3.57875C14.4666 4.09651 14.2192 5.49849 13.994 6.16753C14.6244 6.83657 14.9844 7.65617 14.9844 8.4978C14.9844 10.4396 13.5666 11.8636 10.5748 12.1654C11.4074 12.5752 11.9926 13.74 11.9926 14.6029V16.5682C11.9926 16.6328 11.9704 16.6974 11.9704 16.7621C15.48 15.5973 18 12.4048 18 8.62926C18 3.8615 13.9726 0 9 0Z" fill="black"/>
</svg>
