<svg width="17" height="16" viewBox="0 0 17 16" fill="none" xmlns="http://www.w3.org/2000/svg">
<g clip-path="url(#clip0)">
<path d="M17 3.039C16.3678 3.3 15.6942 3.473 14.9919 3.557C15.7144 3.151 16.2658 2.513 16.5251 1.744C15.8514 2.122 15.1077 2.389 14.3151 2.538C13.6754 1.897 12.7638 1.5 11.7693 1.5C9.83981 1.5 8.28644 2.974 8.28644 4.781C8.28644 5.041 8.30981 5.291 8.36719 5.529C5.46975 5.396 2.90594 4.089 1.18362 2.098C0.882937 2.589 0.706563 3.151 0.706563 3.756C0.706563 4.892 1.32812 5.899 2.25463 6.482C1.69469 6.472 1.14538 6.319 0.68 6.078C0.68 6.088 0.68 6.101 0.68 6.114C0.68 7.708 1.88806 9.032 3.47225 9.337C3.18856 9.41 2.87937 9.445 2.5585 9.445C2.33538 9.445 2.11012 9.433 1.89869 9.389C2.35025 10.688 3.63163 11.643 5.15525 11.674C3.9695 12.547 2.46394 13.073 0.834063 13.073C0.54825 13.073 0.274125 13.061 0 13.028C1.54381 13.965 3.37344 14.5 5.3465 14.5C11.7597 14.5 15.266 9.5 15.266 5.166C15.266 5.021 15.2607 4.881 15.2533 4.742C15.9449 4.28 16.5261 3.703 17 3.039Z" fill="black"/>
</g>
<defs>
<clipPath id="clip0">
<rect width="17" height="16" fill="white"/>
</clipPath>
</defs>
</svg>
